HIERARCHY
ROOT Pelvis
{
	OFFSET 0.000000 0.000000 0.000000
	CHANNELS 6 Xposition Yposition Zposition Xrotation Yrotation Zrotation
	JOINT LeftUpLeg_virtual
	{
		OFFSET 0.000000 0.000000 0.000000
		CHANNELS 3 Xrotation Yrotation Zrotation
		JOINT LeftUpLeg
		{
			OFFSET 18.735201 -5.666702 -4.541200
			CHANNELS 3 Xrotation Yrotation Zrotation
			JOINT LeftLeg
			{
				OFFSET -0.021200 -31.938179 0.493100
				CHANNELS 3 Xrotation Yrotation Zrotation
				JOINT LeftFoot
				{
					OFFSET 0.021200 -31.938179 -4.336299
					CHANNELS 3 Xrotation Yrotation Zrotation
					JOINT LeftToeBase
					{
						OFFSET 0.943001 -26.722000 15.023500
						CHANNELS 3 Xrotation Yrotation Zrotation
						End Site
						{
							OFFSET 0 0 0
						}
					}
				}
			}
		}
	}
	JOINT RightUpLeg_virtual
	{
		OFFSET 0.000000 0.000000 0.000000
		CHANNELS 3 Xrotation Yrotation Zrotation
		JOINT RightUpLeg
		{
			OFFSET -18.735201 -5.666702 -4.541200
			CHANNELS 3 Xrotation Yrotation Zrotation
			JOINT RightLeg
			{
				OFFSET 0.018946 -31.938133 0.493100
				CHANNELS 3 Xrotation Yrotation Zrotation
				JOINT RightFoot
				{
					OFFSET -0.018946 -31.938126 -4.336299
					CHANNELS 3 Xrotation Yrotation Zrotation
					JOINT RightToeBase
					{
						OFFSET -0.943001 -26.722004 15.023500
						CHANNELS 3 Xrotation Yrotation Zrotation
						End Site
						{
							OFFSET 0 0 0
						}
					}
				}
			}
		}
	}
	JOINT Hips_virtual
	{
		OFFSET 0.000000 0.000000 0.000000
		CHANNELS 3 Xrotation Yrotation Zrotation
		JOINT Hips
		{
			OFFSET -0.000000 -0.000000 -0.000000
			CHANNELS 3 Xrotation Yrotation Zrotation
			JOINT Spine
			{
				OFFSET 0.000000 10.199997 -0.299500
				CHANNELS 3 Xrotation Yrotation Zrotation
				JOINT Spine1
				{
					OFFSET 0.000000 11.900002 -1.516600
					CHANNELS 3 Xrotation Yrotation Zrotation
					JOINT Spine2
					{
						OFFSET 0.000000 13.600006 -2.842500
						CHANNELS 3 Xrotation Yrotation Zrotation
						JOINT Neck_virtual
						{
							OFFSET 0.000000 0.000000 0.000000
							CHANNELS 3 Xrotation Yrotation Zrotation
							JOINT Neck
							{
								OFFSET 0.000000 9.624100 -2.890100
								CHANNELS 3 Xrotation Yrotation Zrotation
								JOINT Head
								{
									OFFSET 0.000000 14.068802 -1.351900
									CHANNELS 3 Xrotation Yrotation Zrotation
									End Site
									{
										OFFSET 0 0 0
									}
								}
							}
						}
						JOINT LeftShoulder_virtual
						{
							OFFSET 0.000000 0.000000 0.000000
							CHANNELS 3 Xrotation Yrotation Zrotation
							JOINT LeftShoulder
							{
								OFFSET 15.263000 10.923401 -0.547700
								CHANNELS 3 Xrotation Yrotation Zrotation
								JOINT LeftArm
								{
									OFFSET 25.438599 -2.830597 -13.032500
									CHANNELS 3 Xrotation Yrotation Zrotation
									JOINT LeftForeArm
									{
										OFFSET 29.960503 0.000000 0.000000
										CHANNELS 3 Xrotation Yrotation Zrotation
										JOINT LeftHand
										{
											OFFSET 27.849251 0.000000 0.000000
											CHANNELS 3 Xrotation Yrotation Zrotation
											End Site
											{
												OFFSET 0 0 0
											}
										}
									}
								}
							}
						}
						JOINT RightShoulder_virtual
						{
							OFFSET 0.000000 0.000000 0.000000
							CHANNELS 3 Xrotation Yrotation Zrotation
							JOINT RightShoulder
							{
								OFFSET -15.263000 10.923401 -0.547700
								CHANNELS 3 Xrotation Yrotation Zrotation
								JOINT RightArm
								{
									OFFSET -25.438599 -2.830597 -13.032500
									CHANNELS 3 Xrotation Yrotation Zrotation
									JOINT RightForeArm
									{
										OFFSET -29.960503 0.000000 0.000000
										CHANNELS 3 Xrotation Yrotation Zrotation
										JOINT RightHand
										{
											OFFSET -27.849251 0.000000 0.000000
											CHANNELS 3 Xrotation Yrotation Zrotation
											End Site
											{
												OFFSET 0 0 0
											}
										}
									}
								}
							}
						}
					}
				}
			}
		}
	}
}
MOTION
Frames: 8
Frame Time: 0.03333333
0.240848 84.498055 2.944490 0.000000 0.000000 0.000000 -14.105903 4.532477 -0.104806 -21.660912 -4.927548 16.759225 61.522335 -1.785230 0.174997 -24.860494 -0.324718 -14.605595 0.000000 0.000000 0.000000 -14.105903 4.532477 -0.104806 -13.958683 -8.105648 -18.417723 59.780821 1.435386 -0.212857 -30.094937 -5.208991 13.131201 0.000000 0.000000 0.000000 -14.105903 4.532477 -0.104806 -0.000001 0.000000 0.000000 20.016245 -0.089242 0.603570 6.967312 -0.338752 0.679832 0.000000 0.000000 0.000000 6.967508 -0.337004 0.677442 -2.448864 -0.257673 -0.077651 0.000000 0.000000 0.000000 6.967508 -0.337004 0.677442 3.082227 -9.945128 -6.811321 -13.959243 -7.908230 -60.295237 69.634284 -63.509107 71.597110 0.000000 0.000000 0.000000 6.967508 -0.337004 0.677442 8.709553 -2.418517 18.823129 -21.494465 12.934316 56.855495 76.344159 65.517012 -70.724594 0.000000 0.000000 0.000000 
0.256068 84.458977 2.993456 0.000000 0.000000 0.000000 -14.111149 4.556173 -0.126640 -21.688578 -4.950422 16.794084 61.675290 -1.775187 0.175411 -24.983230 -0.363804 -14.617237 0.000000 0.000000 0.000000 -14.111149 4.556173 -0.126640 -13.919902 -8.126055 -18.422876 59.843167 1.439520 -0.213355 -30.182377 -5.214340 13.158385 0.000000 0.000000 0.000000 -14.111149 4.556173 -0.126640 0.000000 0.000000 0.000000 20.015383 -0.084925 0.616300 6.967177 -0.335989 0.689695 0.000000 0.000000 0.000000 6.967397 -0.333837 0.687153 -2.479350 -0.259876 -0.088201 0.000000 0.000000 0.000000 6.967397 -0.333837 0.687153 2.956829 -10.038396 -7.341127 -14.073640 -7.895410 -59.003661 69.357258 -63.656093 70.461201 0.000000 0.000000 0.000000 6.967397 -0.333837 0.687153 8.710147 -2.421088 18.860188 -21.489471 12.863794 56.693678 76.539291 65.641779 -70.847476 0.000000 0.000000 0.000000 
0.286211 84.392815 3.080460 0.000000 0.000000 0.000000 -14.124467 4.628281 -0.165036 -21.749025 -4.998014 16.854438 61.944119 -1.796931 0.175818 -25.189995 -0.423420 -14.615468 0.000000 0.000000 0.000000 -14.124467 4.628281 -0.165036 -13.821889 -8.182132 -18.427888 59.931099 1.440930 -0.214121 -30.336155 -5.237195 13.211269 0.000000 0.000000 0.000000 -14.124467 4.628281 -0.165036 -0.000001 0.000000 0.000000 20.011177 -0.076465 0.641625 6.966027 -0.327721 0.719249 0.000000 0.000000 0.000000 6.966378 -0.324708 0.716456 -2.509902 -0.268114 -0.099401 0.000000 0.000000 0.000000 6.966378 -0.324708 0.716456 2.764797 -10.227419 -8.150474 -14.313654 -7.958064 -56.721835 68.594395 -63.723384 67.966400 0.000000 0.000000 0.000000 6.966378 -0.324708 0.716456 8.718474 -2.429206 18.921149 -21.496053 12.656101 56.308288 77.004044 65.942587 -71.153100 0.000000 0.000000 0.000000 
0.320243 84.333389 3.159540 0.000000 0.000000 0.000000 -14.144268 4.737264 -0.196764 -21.808099 -5.105547 16.870525 62.196249 -1.818202 0.176190 -25.368820 -0.448100 -14.610408 0.000000 0.000000 0.000000 -14.144268 4.737264 -0.196764 -13.691568 -8.248053 -18.424997 59.991348 1.441363 -0.214588 -30.480918 -5.296081 13.264183 0.000000 0.000000 0.000000 -14.144268 4.737264 -0.196764 0.000001 0.000000 0.000000 20.004268 -0.065131 0.665511 6.959312 -0.313089 0.767879 0.000000 0.000000 0.000000 6.959683 -0.306488 0.764834 -2.508607 -0.283854 -0.100877 0.000000 0.000000 0.000000 6.959683 -0.306488 0.764834 2.605480 -10.449067 -8.667087 -14.613390 -8.282415 -54.611973 67.543850 -63.362545 64.922703 0.000000 0.000000 0.000000 6.959683 -0.306488 0.764834 8.730921 -2.444811 18.974038 -21.553770 12.391529 55.888921 77.539046 66.277267 -71.520605 0.000000 0.000000 0.000000 
0.360159 84.281387 3.248667 0.000000 0.000000 0.000000 -14.170161 4.919830 -0.237128 -21.864545 -5.322654 16.846807 62.449417 -1.811228 0.176709 -25.536599 -0.457378 -14.622923 0.000000 0.000000 0.000000 -14.170161 4.919830 -0.237128 -13.486449 -8.393176 -18.413801 59.985904 1.446749 -0.214581 -30.627193 -5.376403 13.316741 0.000000 0.000000 0.000000 -14.170161 4.919830 -0.237128 -0.000001 0.000000 0.000000 19.990219 -0.049711 0.702518 6.937511 -0.293119 0.836672 0.000000 0.000000 0.000000 6.937982 -0.289781 0.834064 -2.499099 -0.304308 -0.102529 0.000000 0.000000 0.000000 6.937982 -0.289781 0.834064 2.431006 -10.738114 -9.036975 -14.974693 -8.818248 -52.449303 66.100119 -62.633729 61.042425 0.000000 0.000000 0.000000 6.937982 -0.289781 0.834064 8.767408 -2.495618 19.020516 -21.838845 11.822596 55.109832 78.559039 66.918252 -72.239482 0.000000 0.000000 0.000000 
0.401796 84.250839 3.348989 0.000000 0.000000 0.000000 -14.204855 5.186581 -0.295980 -21.913603 -5.614921 16.820732 62.669622 -1.819309 0.177003 -25.673810 -0.467662 -14.633141 0.000000 0.000000 0.000000 -14.204855 5.186581 -0.295980 -13.177964 -8.655563 -18.382595 59.860563 1.446094 -0.213841 -30.751581 -5.453995 13.367437 0.000000 0.000000 0.000000 -14.204855 5.186581 -0.295980 0.000001 -0.000001 0.000000 19.964254 -0.038878 0.766819 6.896938 -0.293556 0.931055 0.000000 0.000000 0.000000 6.897606 -0.293065 0.928759 -2.445920 -0.328842 -0.085624 0.000000 0.000000 0.000000 6.897606 -0.293065 0.928759 2.270449 -11.090865 -9.178072 -15.385558 -9.489032 -50.404515 64.114713 -61.534042 56.183733 0.000000 0.000000 0.000000 6.897606 -0.293065 0.928759 8.842769 -2.599188 19.061598 -22.457389 10.729875 53.712830 80.552314 68.056804 -73.706429 0.000000 0.000000 0.000000 
0.452619 84.235481 3.464750 0.000000 0.000000 0.000000 -14.235380 5.604350 -0.365971 -21.995453 -6.074262 16.739045 62.881399 -1.825299 0.176969 -25.772759 -0.464243 -14.649526 0.000000 0.000000 0.000000 -14.235380 5.604350 -0.365971 -12.747846 -9.090125 -18.347736 59.606993 1.446098 -0.211618 -30.874559 -5.549560 13.421476 0.000000 0.000000 0.000000 -14.235380 5.604350 -0.365971 0.000000 0.000000 0.000000 19.928853 -0.051798 0.859650 6.839932 -0.351177 1.068726 0.000000 0.000000 0.000000 6.840727 -0.346985 1.066124 -2.372324 -0.358450 -0.057500 0.000000 0.000000 0.000000 6.840727 -0.346985 1.066124 2.111464 -11.543112 -9.212452 -15.811277 -10.260028 -48.386607 61.977007 -60.070694 50.772133 0.000000 0.000000 0.000000 6.840727 -0.346985 1.066124 8.956368 -2.757029 19.125559 -23.419078 9.145774 51.563567 83.811373 69.708494 -76.139233 0.000000 0.000000 0.000000 
0.515011 84.258415 3.599115 0.000000 0.000000 0.000000 -14.247762 6.238344 -0.462602 -22.114998 -6.782005 16.578102 63.036198 -1.824323 0.176516 -25.791013 -0.429390 -14.677277 0.000000 0.000000 0.000000 -14.247762 6.238344 -0.462602 -12.135897 -9.796948 -18.289978 59.106866 1.451699 -0.207400 -30.956531 -5.659985 13.471420 0.000000 0.000000 0.000000 -14.247762 6.238344 -0.462602 0.000001 0.000000 0.000000 19.883072 -0.090230 0.987404 6.764570 -0.463650 1.275405 0.000000 0.000000 0.000000 6.765536 -0.457468 1.276658 -2.316201 -0.392604 -0.047682 0.000000 0.000000 0.000000 6.765536 -0.457468 1.276658 1.954834 -12.174489 -9.252939 -16.221711 -11.082043 -46.299530 59.860891 -58.221134 44.992594 0.000000 0.000000 0.000000 6.765536 -0.457468 1.276658 9.123359 -2.981276 19.240969 -24.792169 6.918174 48.252151 89.546266 72.019687 -80.558939 0.000000 0.000000 0.000000 
